<svg width="75" height="75" viewBox="0 0 75 75" fill="none" xmlns="http://www.w3.org/2000/svg">
<g filter="url(#filter0_d)">
<path d="M37.5 63C51.5833 63 63 51.5833 63 37.5C63 23.4167 51.5833 12 37.5 12C23.4167 12 12 23.4167 12 37.5C12 51.5833 23.4167 63 37.5 63Z" fill="white"/>
</g>
<path d="M38 53C46.2843 53 53 46.0604 53 37.5C53 28.9396 46.2843 22 38 22C29.7157 22 23 28.9396 23 37.5C23 46.0604 29.7157 53 38 53Z" fill="url(#paint0_radial)"/>
<defs>
<filter id="filter0_d" x="0" y="0" width="75" height="75" filterUnits="userSpaceOnUse" color-interpolation-filters="sRGB">
<feFlood flood-opacity="0" result="BackgroundImageFix"/>
<feColorMatrix in="SourceAlpha" type="matrix" values="0 0 0 0 0 0 0 0 0 0 0 0 0 0 0 0 0 0 127 0"/>
<feOffset/>
<feGaussianBlur stdDeviation="6"/>
<feColorMatrix type="matrix" values="0 0 0 0 0 0 0 0 0 0 0 0 0 0 0 0 0 0 0.161 0"/>
<feBlend mode="normal" in2="BackgroundImageFix" result="effect1_dropShadow"/>
<feBlend mode="normal" in="SourceGraphic" in2="effect1_dropShadow" result="shape"/>
</filter>
<radialGradient id="paint0_radial" cx="0" cy="0" r="1" gradientUnits="userSpaceOnUse" gradientTransform="translate(38 37.5) scale(15 15.5)">
<stop stop-color="#423D6E"/>
<stop offset="1" stop-color="#201D40"/>
</radialGradient>
</defs>
</svg>
